<svg xmlns="http://www.w3.org/2000/svg" xmlns:xlink="http://www.w3.org/1999/xlink" width="104" height="40" viewBox="0 0 104 40">
  <defs>
    <clipPath id="clip-path">
      <rect id="Rectangle_55" data-name="Rectangle 55" width="104" height="40" fill="none"/>
    </clipPath>
  </defs>
  <g id="Group_178" data-name="Group 178" clip-path="url(#clip-path)">
    <path id="Path_153" data-name="Path 153" d="M34.54,40H5.257A5.271,5.271,0,0,1,0,34.716V5.284A5.271,5.271,0,0,1,5.257,0H34.54A5.271,5.271,0,0,1,39.8,5.284V34.716A5.271,5.271,0,0,1,34.54,40" transform="translate(0 0)" fill="#d1d3d4"/>
    <path id="Path_154" data-name="Path 154" d="M36.74,20.894a13.346,13.346,0,0,1-3.98,9.491,13.565,13.565,0,0,1-9.569,3.947H14.767V7.456h8.424A13.533,13.533,0,0,1,36.74,20.894" transform="translate(-3.929 -1.956)" fill="#faed21"/>
    <path id="Path_155" data-name="Path 155" d="M33.908,23.785a13.416,13.416,0,0,1-.418,3.536,13.215,13.215,0,0,1-.675,1.976H19.694a3.09,3.09,0,0,1-3.066-3.112v-1.05a.974.974,0,1,1,1.948,0v.769a1.405,1.405,0,0,0,1.4,1.416H31.557a11.443,11.443,0,0,0,.43-1.976,11.669,11.669,0,0,0,.09-1.5,11.36,11.36,0,0,0-11.31-11.328H14.093l0,0V35.283H20.86a11.1,11.1,0,0,0,7.922-3.345l.007-.007a2.318,2.318,0,0,1,1.654-.7H31.78v0a13.426,13.426,0,0,1-1.725,2.157,12.98,12.98,0,0,1-9.264,3.91H13.119a.983.983,0,0,1-.976-.991V11.664a.984.984,0,0,1,.976-.991H20.7a13.273,13.273,0,0,1,13.21,13.112" transform="translate(-3.231 -2.8)" fill="#474c55"/>
    <path id="Path_156" data-name="Path 156" d="M28.712,28.07H25.737a.881.881,0,0,1,0-1.762H27.5L25.659,20.74a.884.884,0,0,1,.545-1.116.865.865,0,0,1,1.1.554l2.23,6.73a.891.891,0,0,1-.117.8.863.863,0,0,1-.7.367" transform="translate(-6.617 -5.136)" fill="#474c55"/>
    <path id="Path_157" data-name="Path 157" d="M21.686,20.425a1.033,1.033,0,1,1-1.033-1.048,1.04,1.04,0,0,1,1.033,1.048" transform="translate(-5.221 -5.083)" fill="#474c55"/>
    <path id="Path_158" data-name="Path 158" d="M108.1,8.293a.951.951,0,0,1,.051-.344.355.355,0,0,1,.154-.221,10.8,10.8,0,0,0-1.581-4.3v-.04c-.152,0-.378-.007-.673-.012s-1.343-.01-1.495-.01a.518.518,0,0,0-.077.061l-.077.06a.757.757,0,0,0-.2-.121c-.351,0-.848,0-1.5.007l1.019,3.206a8.486,8.486,0,0,1,.2,1.6,1.3,1.3,0,0,1,.076.342V8.98a.587.587,0,0,0-.036.21,2.677,2.677,0,0,0-.015.274,7.693,7.693,0,0,1-.662,2.141c.051.081.12.2.2.364l-.229.1-.23.1c-.221.389-.3-.034-.578.344a7.858,7.858,0,0,1-.637.706l-.1.1-.051.04v.02c-.033,0-.051.007-.051.021h-.051v.041a.2.2,0,0,0-.077-.021l-.026-.02h-.28l-.378-.014v.055l-15.025-.286h0l-.7.271-.469-.294-9.593-.183c-.013,1.406-.161,3.781-.161,4.531.087,0,1.176-.005,2.831-.007.5-.228,1.041-.475,1.041-.475l1.125.472c2.8,0,6.36-.005,9.515-.005-.1-.239-.142-.447.092-.341a1.569,1.569,0,0,1,.454.341c3.8,0,6.9,0,7.166,0,.714.008,1.274,0,1.682-.008h3.287l.076-.021h.051l.178-.019.357-.061a3.185,3.185,0,0,1,.484.061l.509.041H104l.152-.021h.051l.051-.041.382-.383a3.966,3.966,0,0,0,.383-.364c.17-.162.3-.292.382-.384l.152-.181.053-.041.024-.041.051-.061a.369.369,0,0,0,.065-.072.632.632,0,0,1,.077-.081.28.28,0,0,0,.062-.069l.179-.243.2-.242a11.952,11.952,0,0,0,1.2-2,10.027,10.027,0,0,0,.917-4.383.641.641,0,0,1-.28-.566" transform="translate(-19.915 -0.882)" fill="#474d54"/>
    <path id="Path_159" data-name="Path 159" d="M61.53,16.129l1.109.185.823.091q.1.2.191.4l.183-.381q.694.115,1.39.227l.586.094.213-.072L67.614,17c-.039-.444-.078-.884-.115-1.313.024-.167.049-.333.073-.5q-.047-.687-.1-1.374-.115-1.633-.232-3.259l.389-.431-.412-.448q-.046-.966-.092-1.931l-.189-2.6c.014-.1.027-.2.04-.3q-.12-2.418-.24-4.835l5.088.442q.011,1.7.021,3.4c-.056.125-.112.251-.168.377l.174.505c.02,3.3-.06,6.591-.04,9.887a.7.7,0,0,0-.307.655.667.667,0,0,0,.314.6q.017,2.541.032,5.08c-1.113-.051-2.875-.032-3.586-.022v.03l-2.165-.031c-.033-.176-.138-.3-.258-.308s-.242.116-.279.3c-1.405-.02-2.811.059-4.216.038l-.216-.17-.16.165-1.449-.021q-.095-2.5-.189-5l2.062.236.129-.04" transform="translate(-15.789 -0.001)" fill="#474d54"/>
    <path id="Path_160" data-name="Path 160" d="M108.921,24.01h-3.866l-.142.421.1.165-.19.139q-.189.585-.522,1.754-.121.424-.222.77h3.446l.308-.606.475-.866.023-.094.83-1.637Z" transform="translate(-27.693 -6.299)" fill="#474d54"/>
    <path id="Path_161" data-name="Path 161" d="M102.534,24.01H98.669l-.142.421.1.165-.19.139q-.189.585-.522,1.754-.121.424-.222.77h3.446l.308-.606.475-.866.023-.094.83-1.637Z" transform="translate(-25.993 -6.299)" fill="#474d54"/>
    <path id="Path_162" data-name="Path 162" d="M119.887,32.25H117.05l-.1.309.07.12-.139.1q-.14.429-.384,1.287c-.059.207-.112.4-.162.565h2.53l.225-.445.348-.635.018-.069.608-1.2Z" transform="translate(-30.953 -8.46)" fill="#474d54"/>
    <path id="Path_163" data-name="Path 163" d="M115.2,32.25h-2.837l-.1.309.07.12-.139.1q-.14.429-.384,1.287c-.059.207-.112.4-.162.565h2.529l.226-.445.348-.635.018-.069.608-1.2Z" transform="translate(-29.706 -8.46)" fill="#474d54"/>
    <path id="Path_164" data-name="Path 164" d="M104.51,50.992h-2.837l-.1.309.07.12-.139.1q-.14.429-.384,1.287c-.059.207-.112.4-.162.565h2.529l.226-.445.348-.635.018-.069.608-1.2Z" transform="translate(-26.862 -13.377)" fill="#474d54"/>
    <path id="Path_165" data-name="Path 165" d="M99.823,50.992H96.986l-.1.309.07.12-.139.1q-.14.429-.384,1.287c-.059.207-.112.4-.162.565H98.8l.226-.445.348-.635.018-.069.608-1.2Z" transform="translate(-25.615 -13.377)" fill="#474d54"/>
    <path id="Path_166" data-name="Path 166" d="M92.2,31.532H89.364l-.1.309.07.12-.139.1q-.14.429-.384,1.287c-.059.207-.112.4-.162.565h2.529l.226-.445.348-.635.018-.069.608-1.2Z" transform="translate(-23.587 -8.272)" fill="#474d54"/>
    <path id="Path_167" data-name="Path 167" d="M91.253,27.907H88.416l-.1.309.07.12-.139.1q-.14.429-.384,1.287c-.059.207-.112.4-.162.565h2.529l.226-.445.348-.635.018-.069.608-1.2Z" transform="translate(-23.335 -7.321)" fill="#474d54"/>
    <path id="Path_168" data-name="Path 168" d="M68.1,31.532H65.261l-.1.309.07.12-.139.1q-.14.429-.384,1.287c-.059.207-.112.4-.162.565h2.53l.225-.445.348-.635.018-.069.608-1.2Z" transform="translate(-17.173 -8.272)" fill="#474d54"/>
    <path id="Path_169" data-name="Path 169" d="M87.513,31.532H84.676l-.1.309.07.12-.139.1q-.14.429-.384,1.287c-.059.207-.112.4-.162.565h2.529l.226-.445.348-.635.018-.069.608-1.2Z" transform="translate(-22.339 -8.272)" fill="#474d54"/>
    <path id="Path_170" data-name="Path 170" d="M137.786,35.628q-.015.427-.054,1.213t-.054,1.167l.016.153q-.032.413-.093,1.328l-.046.976a1.133,1.133,0,0,1-.1.122.689.689,0,0,1-.116.107c.092.1.16.178.2.229q-.062.823-.124,1.647c0,.082-.005.2-.015.359s-.021.272-.031.343c.01.061.026.148.046.26q-.154,1.724-.232,2.578-.356.031-.99.053t-.989.038l-.325.03-.092.015-.046.015h-.047l-.17-.091-.341-.153c-.1-.051-.252-.127-.448-.229q-.34-.184-.7-.381,0-.168-.248-.321a3.579,3.579,0,0,0-.4-.183,3.534,3.534,0,0,0-.4.183q-.248.153-.247.321-.357.2-.7.381c-.2.1-.35.178-.464.229l-.341.153-.154.091h-.047l-.046-.015-.092-.015-.325-.03-1-.038q-.626-.022-1-.053-.062-.854-.217-2.578c.01-.112.021-.2.031-.26s-.005-.186-.015-.343-.021-.277-.031-.359q-.062-.823-.109-1.647a1.068,1.068,0,0,1,.093-.114,1.136,1.136,0,0,0,.092-.114c-.041-.041-.108-.117-.2-.229l-.046-.976q-.015-.229-.046-.664c-.021-.29-.037-.511-.046-.664a.535.535,0,0,1,.015-.153q-.015-.412-.062-1.19t-.062-1.19q.433.031,1.292.107t1.291.122V37.5a1,1,0,0,1-.077.183c.01.03.026.074.046.13s.036.1.046.13q0,.839-.015,2.517t-.015,2.518a.338.338,0,0,0-.155.336c.01.163.068.265.17.305v.519h.155a.014.014,0,0,0,.015-.015c.051-.03.092-.055.124-.076l.309-.2a3.388,3.388,0,0,1,.379-.191q.286-.129.395-.19l.139-.061.062-.03h.031l.015-.015.077-.061.062-.061v-.046a.123.123,0,0,0-.007-.038.128.128,0,0,1-.008-.038l-.015-.107V41.669l.17-.213v-.091l-.155-.214.032-1.144v-.29q-.047-.732-.093-1.327l.077-.29-.108-.229q-.092-1.388-.092-1.556c.1-.021.2-.035.294-.046.186-.031.371-.056.557-.077.062-.01.131-.023.208-.038s.147-.028.209-.038c.134.021.3.048.5.084s.358.058.472.069c.093.01.191.025.294.046l-.109,1.556-.092.229.062.29q-.031.594-.077,1.327v.29l.031,1.144-.155.214a.214.214,0,0,1-.008.046.2.2,0,0,0-.007.046l.186.213v1.3l-.015.046v.107a.063.063,0,0,0-.015.046v.03l-.015.046a.643.643,0,0,0,.077.061l.077.061.015.015h.015l.078.03.123.061q.108.061.4.19a3.278,3.278,0,0,1,.387.191l.309.2a.778.778,0,0,1,.109.076.014.014,0,0,0,.015.015h.17v-.519c.1-.041.155-.142.155-.305s-.042-.285-.155-.336q0-.839-.008-2.518t-.007-2.517c.01-.031.026-.074.046-.13s.036-.1.046-.13L135.2,37.5q0-.274.007-.817t.008-.831q.433-.045,1.292-.122t1.276-.107" transform="translate(-33.786 -9.346)" fill="#474d54"/>
    <path id="Path_171" data-name="Path 171" d="M91.827,35.628q-.015.427-.054,1.213t-.054,1.167l.016.153q-.032.413-.093,1.328l-.046.976a1.134,1.134,0,0,1-.1.122.69.69,0,0,1-.116.107c.092.1.16.178.2.229q-.062.823-.124,1.647c0,.082-.005.2-.015.359s-.021.272-.031.343c.01.061.026.148.046.26q-.154,1.724-.232,2.578-.356.031-.99.053t-.989.038l-.325.03-.092.015-.046.015h-.047l-.17-.091-.341-.153c-.1-.051-.252-.127-.448-.229q-.34-.184-.7-.381,0-.168-.248-.321a3.584,3.584,0,0,0-.4-.183,3.533,3.533,0,0,0-.4.183q-.248.153-.248.321-.356.2-.7.381c-.2.1-.35.178-.464.229l-.341.153-.154.091h-.047l-.046-.015-.092-.015-.325-.03-1-.038q-.626-.022-1-.053-.062-.854-.216-2.578c.01-.112.021-.2.031-.26s-.005-.186-.015-.343-.021-.277-.031-.359q-.062-.823-.109-1.647a1.063,1.063,0,0,1,.093-.114,1.137,1.137,0,0,0,.092-.114c-.041-.041-.108-.117-.2-.229l-.046-.976q-.015-.229-.046-.664c-.021-.29-.037-.511-.046-.664a.535.535,0,0,1,.015-.153q-.015-.412-.062-1.19t-.062-1.19q.433.031,1.292.107t1.291.122V37.5a1,1,0,0,1-.077.183c.01.03.026.074.046.13s.036.1.046.13q0,.839-.015,2.517t-.015,2.518a.338.338,0,0,0-.155.336c.01.163.068.265.17.305v.519h.155a.014.014,0,0,0,.015-.015c.051-.03.092-.055.124-.076l.309-.2a3.389,3.389,0,0,1,.379-.191q.286-.129.395-.19l.139-.061.062-.03h.031l.015-.015L85.3,43.3l.062-.061v-.046a.124.124,0,0,0-.007-.038.128.128,0,0,1-.008-.038l-.015-.107V41.669l.17-.213v-.091l-.155-.214.032-1.144v-.29q-.047-.732-.093-1.327l.077-.29-.108-.229q-.092-1.388-.092-1.556c.1-.021.2-.035.294-.046.186-.031.371-.056.557-.077.062-.01.131-.023.208-.038s.147-.028.209-.038c.134.021.3.048.5.084s.358.058.472.069c.093.01.191.025.294.046l-.109,1.556L87.5,38.1l.062.29q-.031.594-.077,1.327v.29l.031,1.144-.155.214a.213.213,0,0,1-.008.046.2.2,0,0,0-.007.046l.186.213v1.3l-.015.046v.107a.06.06,0,0,0-.015.046v.03l-.015.046a.647.647,0,0,0,.077.061l.077.061.015.015h.015l.078.03.123.061q.108.061.4.19a3.278,3.278,0,0,1,.387.191l.309.2a.778.778,0,0,1,.109.076.014.014,0,0,0,.015.015h.17v-.519c.1-.041.155-.142.155-.305s-.042-.285-.155-.336q0-.839-.008-2.518t-.007-2.517c.01-.031.026-.074.046-.13s.036-.1.046-.13l-.092-.183q0-.274.007-.817t.008-.831q.433-.045,1.292-.122t1.276-.107" transform="translate(-21.557 -9.346)" fill="#474d54"/>
    <path id="Path_172" data-name="Path 172" d="M70.1,36.841c-.026.524-.044.913-.054,1.166l.017.154q-.032.409-.094,1.326l-.047.976a1.267,1.267,0,0,1-.1.122.727.727,0,0,1-.117.107c.093.1.161.178.2.229q-.062.821-.123,1.646c0,.083-.007.2-.016.359s-.021.273-.031.344c.01.06.026.147.047.258q-.154,1.726-.233,2.579-.356.032-.989.053c-.424.016-.753.028-.991.039l-.324.031-.093.014-.046.015h-.032l-2.234.341-2.42-.341H62.4l-.046-.015-.092-.014-.326-.031c-.247-.011-.58-.023-1-.039s-.75-.032-1-.053q-.062-.853-.217-2.579c.01-.111.021-.2.031-.258s0-.186-.016-.344-.02-.276-.029-.359q-.064-.824-.11-1.646a1.2,1.2,0,0,1,.094-.115,1.429,1.429,0,0,0,.093-.114c-.041-.041-.108-.117-.2-.229l-.046-.976c-.012-.152-.026-.373-.048-.664s-.036-.511-.046-.662a.55.55,0,0,1,.015-.154c-.01-.274-.029-.671-.061-1.189s-.052-.916-.062-1.191q.433.032,1.291.107c.573.052,1,.091,1.292.122v1.648a1.182,1.182,0,0,1-.077.183c.01.03.024.075.046.129s.036.1.046.129q0,.841-.015,2.518t-.017,2.518a.338.338,0,0,0-.153.336c.01.163.067.265.17.305v.519h5.661v-.519c.1-.041.153-.142.153-.305s-.04-.284-.153-.336q0-.839-.009-2.518t-.008-2.518c.01-.03.026-.072.048-.129s.036-.1.046-.129c-.04-.083-.072-.142-.093-.183,0-.184,0-.455.008-.817s.009-.638.009-.831c.288-.031.719-.071,1.29-.122s1-.086,1.276-.107q-.015.427-.054,1.213" transform="translate(-15.789 -9.346)" fill="#474d54"/>
    <path id="Path_173" data-name="Path 173" d="M126.336,46.154q.037.482.092,1.414t.092,1.364q-.331-.033-1-.075c-.442-.028-.774-.047-1-.058a.682.682,0,0,0-.123.017q-1.069-.1-1.856-.15l-.184-.233c-.041.055-.1.127-.172.216q-.971-.083-1.905-.167a.575.575,0,0,0-.1.017.586.586,0,0,1-.1.017q-1.34-.15-2.09-.25-.024-.615-.073-2.129.343,0,1.038.008t1.039.008a.247.247,0,0,0,.258.166.217.217,0,0,0,.258-.166q.676.017,2.029,0t2.029-.016c.024.01.059.027.1.049l.1.05c.016-.011.043-.028.079-.05l.08-.049c.156,0,.388,0,.7.008s.539.008.694.008" transform="translate(-31.378 -12.104)" fill="#474d54"/>
    <path id="Path_174" data-name="Path 174" d="M101.87,46.154q.031.482.079,1.414t.079,1.364c-.191-.022-.479-.047-.861-.075s-.67-.047-.861-.058a.513.513,0,0,0-.106.017q-.925-.1-1.605-.15l-.16-.233c-.035.055-.085.127-.149.216q-.839-.083-1.648-.167a.446.446,0,0,0-.085.017.442.442,0,0,1-.084.017q-1.159-.15-1.808-.25-.021-.615-.064-2.129c.2,0,.5,0,.9.008s.7.008.9.008a.216.216,0,0,0,.223.166.19.19,0,0,0,.223-.166q.585.017,1.755,0t1.754-.016c.021.01.051.027.09.049l.09.05.069-.05.069-.049c.134,0,.335,0,.6.008s.465.008.6.008" transform="translate(-25.171 -12.104)" fill="#474d54"/>
    <path id="Path_175" data-name="Path 175" d="M106.875,46.154q-.036.482-.09,1.414t-.09,1.364q.324-.033.972-.075t.972-.058a.651.651,0,0,1,.12.017q1.044-.1,1.811-.15l.181-.233c.04.055.1.127.167.216q.949-.083,1.86-.167a.551.551,0,0,1,.1.017.562.562,0,0,0,.1.017q1.308-.15,2.04-.25.024-.615.072-2.129-.336,0-1.014.008t-1.014.008a.241.241,0,0,1-.252.166.212.212,0,0,1-.252-.166q-.659.017-1.98,0t-1.979-.016c-.024.01-.058.027-.1.049l-.1.05c-.016-.011-.042-.028-.078-.05l-.079-.049c-.152,0-.378,0-.677.008s-.526.008-.678.008" transform="translate(-28.39 -12.104)" fill="#474d54"/>
    <path id="Path_176" data-name="Path 176" d="M73.857,46.023c.244-.006.427-.008.55-.008l.064.049.063.05.083-.05.083-.049q.536,0,1.608.016t1.608,0c.026.122.094.178.2.167a.2.2,0,0,0,.2-.167q.273,0,.823-.008c.368-.006.642-.008.823-.008q-.039,1.514-.058,2.13-.594.1-1.657.249a.38.38,0,0,1-.078-.017.353.353,0,0,0-.078-.016q-.741.083-1.51.166c-.059-.089-.1-.161-.136-.216l-.146.233q-.624.05-1.472.15a.478.478,0,0,0-.1-.017c-.175.011-.439.031-.79.058s-.614.052-.789.075q.029-.433.073-1.365t.073-1.414q.185,0,.55-.008" transform="translate(-19.467 -12.071)" fill="#474d54"/>
    <path id="Path_177" data-name="Path 177" d="M117.933,36.543q.489-.04,1.433-.1t1.383-.1q-.034.363-.076,1.086t-.059,1.086a.811.811,0,0,0,.017.134q-.1,1.166-.152,2.024l-.236.2c.057.044.129.107.219.187q-.085,1.059-.169,2.078a.7.7,0,0,0,.017.107.691.691,0,0,1,.017.108q-.152,1.461-.253,2.279-.624.027-2.158.08,0-.375.009-1.133t.008-1.132a.272.272,0,0,0,.169-.282.238.238,0,0,0-.169-.282q.017-.737,0-2.212t-.017-2.212c.011-.027.028-.065.051-.114l.051-.114c-.012-.018-.029-.047-.051-.087s-.04-.069-.051-.088q0-.254.009-.757t.008-.758" transform="translate(-31.375 -9.534)" fill="#474d54"/>
    <path id="Path_178" data-name="Path 178" d="M104.08,36.557q.489-.043,1.433-.108t1.383-.108q-.033.387-.076,1.162t-.059,1.161a.917.917,0,0,0,.017.143q-.1,1.247-.152,2.165l-.236.215c.057.048.129.115.219.2q-.085,1.133-.169,2.222a.8.8,0,0,0,.017.115.788.788,0,0,1,.017.114q-.152,1.563-.253,2.437-.624.029-2.158.086,0-.4.009-1.212t.008-1.211a.291.291,0,0,0,.169-.3q.017-.243-.169-.3.017-.788,0-2.365t-.017-2.366q.016-.043.051-.122l.051-.122c-.012-.019-.029-.05-.051-.094s-.04-.074-.051-.093q0-.272.009-.81t.008-.81" transform="translate(-27.689 -9.534)" fill="#474d54"/>
    <path id="Path_179" data-name="Path 179" d="M135.84,7.308a1.815,1.815,0,0,1,.048-.5.572.572,0,0,1,.188-.32,19.2,19.2,0,0,0-1.839-6.4c0-.018,0-.038,0-.055q-.8-.009-1.593-.021l-.175.166L132.229,0c-1.545-.019-3.09.058-4.636.039a.331.331,0,0,1-.307.3A.347.347,0,0,1,127,.034c-.222,0-.443-.005-.665-.008V4.144l.754.139.233-.072c.214.031.429.061.645.094.509.075,1.019.15,1.527.226.068-.126.135-.254.2-.381.069.136.139.271.211.406.3.03.6.061.9.09l.837.128a14.566,14.566,0,0,1,.222,2.363c.042.168.085.336.113.505L131.98,8c0,.118-.005.235-.016.353-.021.234-.031.468-.058.7a13.2,13.2,0,0,1-.765,3.2c.084.176.158.353.232.533l-.263.152-.269.142a13.8,13.8,0,0,1-.881,1.717q-.352.546-.751,1.059l-.1.125-.051.063-.024.031-.005,0a.433.433,0,0,1-.043.019.235.235,0,0,1-.069.013v.03a.2.2,0,0,1-.007.02l-.07-.03-.027-.015-.333-.014-1.392-.06-1.9-.08c0-.013,0-.026,0-.037h-4.228q-.014,2.521-.031,5.041c.972-.046,1.811-.016,2.7-.016.386,0,.783-.007,1.2-.026l3.89.021.081-.031a.283.283,0,0,1,.051-.011l.212-.042.415-.083c.192.029.387.058.583.084l.6.068.35-.008.177-.007h.065c.008,0,.011-.008.016-.013l.057-.068.448-.546c.149-.181.3-.36.445-.547s.294-.367.431-.559l.209-.285.051-.071.034-.047.058-.086c.077-.113.158-.224.232-.341l.222-.347.214-.354a17.858,17.858,0,0,0,1.411-2.985,18.489,18.489,0,0,0,1.1-6.5,1.093,1.093,0,0,1-.338-.855" transform="translate(-32.177 0)" fill="#474d54"/>
  </g>
</svg>
