<svg xmlns="http://www.w3.org/2000/svg" width="454.028" height="555.405" viewBox="0 0 454.028 555.405">
  <path id="Path_180" data-name="Path 180" d="M466.138,284.175a279.837,279.837,0,0,1-8.726,73.749,275.65,275.65,0,0,1-14.084,41.221l-.031.031H169.654c-35.317,0-63.96-29.066-63.96-64.917v-21.9a20.317,20.317,0,1,1,40.629,0V328.4a29.314,29.314,0,0,0,29.1,29.527H417.043l.046-.031a238.681,238.681,0,0,0,8.971-41.221,243.4,243.4,0,0,0,1.883-31.343C427.285,154.31,321.1,49.048,192.036,49.048H52.818l-.046.046V524.011l.046.031H193.965c64.343,0,122.837-26.712,165.242-69.764l.153-.138A48.361,48.361,0,0,1,393.85,439.46h27.908l.031.061a280.054,280.054,0,0,1-35.976,44.991c-49.585,50.331-117.984,81.566-193.227,81.566H32.5a20.507,20.507,0,0,1-20.361-20.665V31.338A20.517,20.517,0,0,1,32.5,10.673H190.6c149.811,0,273.291,121.449,275.541,273.5" transform="translate(-12.143 -10.673)" fill="#474c55" opacity="0.098"/>
</svg>
