<svg xmlns="http://www.w3.org/2000/svg" width="23.962" height="21" viewBox="0 0 23.962 21">
  <path id="Union_14" data-name="Union 14" d="M16.478,20a9.971,9.971,0,0,1-4.984-1.329A9.813,9.813,0,0,1,6.556,20H.74A.742.742,0,0,1,0,19.256V.744A.742.742,0,0,1,.74,0H6.484a9.971,9.971,0,0,1,4.984,1.329A9.813,9.813,0,0,1,16.406,0h5.817a.742.742,0,0,1,.74.744V19.256a.742.742,0,0,1-.74.744Zm-.052-1.382h5.059l0,0V1.515h-5.13a8.382,8.382,0,0,0-3.511.768A10.04,10.04,0,0,1,15.667,6.01h1.572a2.331,2.331,0,0,1,2.324,2.338v.789a.738.738,0,1,1-1.476,0V8.559A1.06,1.06,0,0,0,17.03,7.5h-.85a10.018,10.018,0,0,1,0,5.009,9.889,9.889,0,0,1-.512,1.484H8.81a8.613,8.613,0,0,0,2.588,3,8.612,8.612,0,0,0,1.212-1.014l.005,0a1.766,1.766,0,0,1,1.253-.529h1.014v0A10.076,10.076,0,0,1,12.764,17.8,8.54,8.54,0,0,0,16.426,18.618ZM1.476,1.383v17.1h5.13a8.382,8.382,0,0,0,3.511-.768A10.04,10.04,0,0,1,7.3,13.99H5.723A2.331,2.331,0,0,1,3.4,11.652v-.789a.738.738,0,1,1,1.476,0v.577A1.06,1.06,0,0,0,5.933,12.5h.85A10,10,0,0,1,7.3,6.011h6.857a8.612,8.612,0,0,0-2.588-3,8.609,8.609,0,0,0-1.212,1.014l-.006,0a1.765,1.765,0,0,1-1.253.529H8.079v0A10.086,10.086,0,0,1,10.2,2.2a8.54,8.54,0,0,0-3.662-.821H1.478ZM14.712,12.5h0a8.524,8.524,0,0,0,.326-1.484,8.705,8.705,0,0,0,.068-1.129A8.513,8.513,0,0,0,14.754,7.5h-6.5a8.538,8.538,0,0,0-.326,1.484,8.667,8.667,0,0,0-.068,1.129A8.512,8.512,0,0,0,8.209,12.5Z" transform="translate(0.5 0.5)" fill="#474c55" stroke="rgba(0,0,0,0)" stroke-miterlimit="10" stroke-width="1"/>
</svg>
